<svg version="1.1" xmlns="http://www.w3.org/2000/svg" width="254" height="348"><defs><style type="text/css">* {
  stroke-linecap: butt;
}
text {
  fill: black;
  font-size: 16px;
  font-family: Arial;
  white-space: nowrap;
}
text.classified {
  font-style: oblique;
}
text.annotation {
  font-size: 12px;
  font-family: Arial;
}
tspan.quotation, text.hyphen {
  fill: rgba(0, 0, 0, 0.6);
}
rect.station {
  fill: white;
  stroke: black;
  stroke-width: 2px;
}
path.railroad {
  fill: none;
  stroke: black;
  stroke-width: 2px;
}
path.arrow {
  fill: none;
  stroke: black;
  stroke-width: 2px;
}
path.loop {
  fill: none;
  stroke: black;
  stroke-width: 2px;
}
.non-greedy path.loop {
  stroke-dasharray: 4 2;
}
rect.border {
  fill: #F0F0F0;
  stroke: black;
  stroke-width: 2px;
  stroke-dasharray: 4 2;
}

rect.bounds {
  fill: none;
  stroke: magenta;
  stroke-width: 1px;
}

.group &gt; rect.border {
  fill: #F0FFF0;
  stroke: green;
}
rect.bounds {
  stroke: magenta;
}</style></defs><rect width="254" height="348" fill="#fff"></rect><g transform="translate(12, 12)"><g class="regexp-diagram-wrapping" transform="translate(0, 0)"><g class="regexp-diagram-straightroute" transform="translate(0, 0)"><g class="regexp-diagram-terminalstation" transform="translate(0, 36)"><path class="railroad" d="M0 0V24M4 0V24"></path></g><g class="regexp-diagram-switch" transform="translate(16, 0)"><g class="regexp-diagram-straightroute" transform="translate(24, 0)"><g class="regexp-diagram-characterstation" transform="translate(0, 36)" data-text-range="0,1"><rect class="station" x="0" y="0" width="31" height="24" rx="12"></rect><text x="6.171875" y="17.5"><tspan class="quotation">“</tspan><tspan>x</tspan><tspan class="quotation">”</tspan></text></g><g class="regexp-diagram-border group" transform="translate(43, 0)" data-text-range="1,6"><text class="annotation" x="0" y="16">positive lookahead</text><rect class="border" x="0" y="24" width="100" height="48"></rect><g class="regexp-diagram-straightroute" transform="translate(12, 36)"><g class="regexp-diagram-characterstation" transform="translate(0, 0)" data-text-range="4,5"><rect class="station" x="0" y="0" width="31" height="24" rx="12"></rect><text x="6.171875" y="17.5"><tspan class="quotation">“</tspan><tspan>y</tspan><tspan class="quotation">”</tspan></text></g></g></g><path class="railroad" d="M 31 48H 55"></path></g><g class="regexp-diagram-straightroute" transform="translate(24, 84)"><g class="regexp-diagram-characterstation" transform="translate(0, 36)" data-text-range="7,8"><rect class="station" x="0" y="0" width="31" height="24" rx="12"></rect><text x="6.171875" y="17.5"><tspan class="quotation">“</tspan><tspan>x</tspan><tspan class="quotation">”</tspan></text></g><g class="regexp-diagram-border group" transform="translate(43, 0)" data-text-range="8,13"><text class="annotation" x="0" y="16">negative lookahead</text><rect class="border" x="0" y="24" width="105" height="48"></rect><g class="regexp-diagram-straightroute" transform="translate(12, 36)"><g class="regexp-diagram-characterstation" transform="translate(0, 0)" data-text-range="11,12"><rect class="station" x="0" y="0" width="31" height="24" rx="12"></rect><text x="6.171875" y="17.5"><tspan class="quotation">“</tspan><tspan>y</tspan><tspan class="quotation">”</tspan></text></g></g></g><path class="railroad" d="M 31 48H 55"></path></g><g class="regexp-diagram-straightroute" transform="translate(24, 168)"><g class="regexp-diagram-border group" transform="translate(0, 0)" data-text-range="14,20"><text class="annotation" x="0" y="16">positive lookbehind</text><rect class="border" x="0" y="24" width="103" height="48"></rect><g class="regexp-diagram-straightroute" transform="translate(12, 36)"><g class="regexp-diagram-characterstation" transform="translate(0, 0)" data-text-range="18,19"><rect class="station" x="0" y="0" width="31" height="24" rx="12"></rect><text x="6.171875" y="17.5"><tspan class="quotation">“</tspan><tspan>y</tspan><tspan class="quotation">”</tspan></text></g></g></g><g class="regexp-diagram-characterstation" transform="translate(115, 36)" data-text-range="20,21"><rect class="station" x="0" y="0" width="31" height="24" rx="12"></rect><text x="6.171875" y="17.5"><tspan class="quotation">“</tspan><tspan>x</tspan><tspan class="quotation">”</tspan></text></g><path class="railroad" d="M 43 48H 115"></path></g><g class="regexp-diagram-straightroute" transform="translate(24, 252)"><g class="regexp-diagram-border group" transform="translate(0, 0)" data-text-range="22,28"><text class="annotation" x="0" y="16">negative lookbehind</text><rect class="border" x="0" y="24" width="107" height="48"></rect><g class="regexp-diagram-straightroute" transform="translate(12, 36)"><g class="regexp-diagram-characterstation" transform="translate(0, 0)" data-text-range="26,27"><rect class="station" x="0" y="0" width="31" height="24" rx="12"></rect><text x="6.171875" y="17.5"><tspan class="quotation">“</tspan><tspan>y</tspan><tspan class="quotation">”</tspan></text></g></g></g><g class="regexp-diagram-characterstation" transform="translate(119, 36)" data-text-range="28,29"><rect class="station" x="0" y="0" width="31" height="24" rx="12"></rect><text x="6.171875" y="17.5"><tspan class="quotation">“</tspan><tspan>x</tspan><tspan class="quotation">”</tspan></text></g><path class="railroad" d="M 43 48H 119"></path></g><path class="railroad" d="M 0 48H 24M 110 48H 198"></path><path class="railroad" d="M 0 48q 12 0,12 12V 120q 0 12,12 12H 24M 110 132H 174q 12 0,12 -12V 60q 0 -12,12 -12"></path><path class="railroad" d="M 12 120V 204q 0 12,12 12H 36M 170 216H 174q 12 0,12 -12V 120"></path><path class="railroad" d="M 12 204V 288q 0 12,12 12H 36M 174 300H 174q 12 0,12 -12V 204"></path></g><path class="railroad" d="M 4 48H 16"></path><g class="regexp-diagram-terminalstation" transform="translate(226, 36)"><path class="railroad" d="M0 0V24M4 0V24"></path></g><path class="railroad" d="M 214 48H 226"></path></g></g></g></svg>