<svg version="1.1" xmlns="http://www.w3.org/2000/svg" width="966" height="324"><defs><style type="text/css">* {
  stroke-linecap: butt;
}
text {
  fill: black;
  font-size: 16px;
  font-family: Arial;
  white-space: nowrap;
}
text.classified {
  font-style: oblique;
}
text.annotation {
  font-size: 12px;
  font-family: Arial;
}
tspan.quotation, text.hyphen {
  fill: rgba(0, 0, 0, 0.6);
}
rect.station {
  fill: white;
  stroke: black;
  stroke-width: 2px;
}
path.railroad {
  fill: none;
  stroke: black;
  stroke-width: 2px;
}
path.arrow {
  fill: none;
  stroke: black;
  stroke-width: 2px;
}
path.loop {
  fill: none;
  stroke: black;
  stroke-width: 2px;
}
.non-greedy path.loop {
  stroke-dasharray: 4 2;
}
rect.border {
  fill: #F0F0F0;
  stroke: black;
  stroke-width: 2px;
  stroke-dasharray: 4 2;
}

rect.bounds {
  fill: none;
  stroke: magenta;
  stroke-width: 1px;
}

.group &gt; rect.border {
  fill: #F0FFF0;
  stroke: green;
}
rect.bounds {
  stroke: magenta;
}</style></defs><rect width="966" height="324" fill="#fff"></rect><g transform="translate(12, 12)"><g class="regexp-diagram-wrapping" transform="translate(0, 0)"><g class="regexp-diagram-straightroute" transform="translate(0, 0)"><g class="regexp-diagram-terminalstation" transform="translate(0, 36)"><path class="railroad" d="M0 0V24M4 0V24"></path></g><g class="regexp-diagram-shortcut" transform="translate(16, 42)"><g class="regexp-diagram-characterstation" transform="translate(24, 30)" data-text-range="0,1"><rect class="station" x="0" y="0" width="28" height="24" rx="12"></rect><text x="6.0078125" y="17.5"><tspan class="quotation">“</tspan><tspan>-</tspan><tspan class="quotation">”</tspan></text></g><path class="railroad" d="M 0 6H 76"></path><path class="arrow" d="M 40 0l 12 6l -12 6"></path><path class="railroad" d="M 0 6q 12 0,12 12V 30q 0 12,12 12H 24M 52 42H 52q 12 0,12 -12V 18q 0 -12,12 -12"></path></g><path class="railroad" d="M 4 48H 16"></path><g class="regexp-diagram-border group" transform="translate(104, 0)" data-text-range="2,16"><text class="annotation" x="0" y="16">group</text><rect class="border" x="0" y="24" width="296" height="186"></rect><g class="regexp-diagram-straightroute" transform="translate(12, 36)"><g class="regexp-diagram-switch" transform="translate(0, 0)"><g class="regexp-diagram-straightroute" transform="translate(24, 0)"><g class="regexp-diagram-characterstation" transform="translate(0, 0)" data-text-range="5,6"><rect class="station" x="0" y="0" width="32" height="24" rx="12"></rect><text x="6.22265625" y="17.5"><tspan class="quotation">“</tspan><tspan>0</tspan><tspan class="quotation">”</tspan></text></g></g><g class="regexp-diagram-straightroute" transform="translate(24, 36)"><g class="regexp-diagram-border" transform="translate(0, 0)" data-text-range="7,12"><text class="annotation" x="0" y="16">one of:</text><rect class="border" x="0" y="24" width="122" height="48"></rect><g class="regexp-diagram-vstack" transform="translate(12, 36)"><g class="regexp-diagram-hstack" transform="translate(0, 0)"><g class="regexp-diagram-characterstation" transform="translate(0, 0)"><rect class="station" x="0" y="0" width="32" height="24" rx="12"></rect><text x="6.22265625" y="17.5"><tspan class="quotation">“</tspan><tspan>1</tspan><tspan class="quotation">”</tspan></text></g><g class="regexp-diagram-hyphen" transform="translate(44, 0)"><text class="hyphen" x="0.328125" y="17.5">−</text></g><g class="regexp-diagram-characterstation" transform="translate(66, 0)"><rect class="station" x="0" y="0" width="32" height="24" rx="12"></rect><text x="6.22265625" y="17.5"><tspan class="quotation">“</tspan><tspan>9</tspan><tspan class="quotation">”</tspan></text></g></g></g></g><g class="regexp-diagram-shortcut" transform="translate(134, 42)"><g class="regexp-diagram-loop" transform="translate(12, 30)"><g class="regexp-diagram-characterstation" transform="translate(12, 0)" data-text-range="12,14"><rect class="station" x="0" y="0" width="42" height="24" rx="0"></rect><text x="6.32421875" y="17.5" class="classified">digit</text></g><path class="railroad" d="M 54 12H 54"></path><path class="loop" d="M 54 12q 12 0,12 12V 36q 0 12,-12 12H 12q -12 0,-12 -12V 24q 0 -12,12 -12H 12"></path><path class="arrow" d="M 24 42l -12 6l 12 6"></path></g><path class="railroad" d="M 0 6H 90"></path><path class="arrow" d="M 54 0l 12 6l -12 6"></path><path class="railroad" d="M 0 6q 12 0,12 12V 30q 0 12,12 12H 24M 66 42H 66q 12 0,12 -12V 18q 0 -12,12 -12"></path></g><path class="railroad" d="M 122 48H 134"></path></g><path class="railroad" d="M 0 12H 24M 56 12H 272"></path><path class="railroad" d="M 0 12q 12 0,12 12V 72q 0 12,12 12H 24M 248 84H 248q 12 0,12 -12V 24q 0 -12,12 -12"></path></g></g></g><path class="railroad" d="M 92 48H 116"></path><g class="regexp-diagram-shortcut" transform="translate(412, 42)"><g class="regexp-diagram-border group" transform="translate(24, 30)" data-text-range="16,25"><text class="annotation" x="0" y="16">group</text><rect class="border" x="0" y="24" width="130" height="78"></rect><g class="regexp-diagram-straightroute" transform="translate(12, 36)"><g class="regexp-diagram-characterstation" transform="translate(0, 0)" data-text-range="19,21"><rect class="station" x="0" y="0" width="28" height="24" rx="12"></rect><text x="6.44921875" y="17.5"><tspan class="quotation">“</tspan><tspan>.</tspan><tspan class="quotation">”</tspan></text></g><g class="regexp-diagram-loop" transform="translate(40, 0)"><g class="regexp-diagram-characterstation" transform="translate(12, 0)" data-text-range="21,23"><rect class="station" x="0" y="0" width="42" height="24" rx="0"></rect><text x="6.32421875" y="17.5" class="classified">digit</text></g><path class="railroad" d="M 54 12H 54"></path><path class="loop" d="M 54 12q 12 0,12 12V 36q 0 12,-12 12H 12q -12 0,-12 -12V 24q 0 -12,12 -12H 12"></path><path class="arrow" d="M 24 42l -12 6l 12 6"></path></g><path class="railroad" d="M 28 12H 52"></path></g></g><path class="railroad" d="M 0 6H 178"></path><path class="arrow" d="M 142 0l 12 6l -12 6"></path><path class="railroad" d="M 0 6q 12 0,12 12V 66q 0 12,12 12H 36M 130 78H 154q 12 0,12 -12V 18q 0 -12,12 -12"></path></g><path class="railroad" d="M 388 48H 412"></path><g class="regexp-diagram-shortcut" transform="translate(602, 42)"><g class="regexp-diagram-border group" transform="translate(24, 30)" data-text-range="26,42"><text class="annotation" x="0" y="16">group</text><rect class="border" x="0" y="24" width="276" height="204"></rect><g class="regexp-diagram-straightroute" transform="translate(12, 36)"><g class="regexp-diagram-border" transform="translate(0, 0)" data-text-range="29,33"><text class="annotation" x="0" y="16">one of:</text><rect class="border" x="0" y="24" width="58" height="84"></rect><g class="regexp-diagram-vstack" transform="translate(12, 36)"><g class="regexp-diagram-characterstation" transform="translate(0, 0)"><rect class="station" x="0" y="0" width="32" height="24" rx="12"></rect><text x="6.22265625" y="17.5"><tspan class="quotation">“</tspan><tspan>e</tspan><tspan class="quotation">”</tspan></text></g><g class="regexp-diagram-characterstation" transform="translate(0, 36)"><rect class="station" x="0" y="0" width="34" height="24" rx="12"></rect><text x="6.3359375" y="17.5"><tspan class="quotation">“</tspan><tspan>E</tspan><tspan class="quotation">”</tspan></text></g></g></g><g class="regexp-diagram-shortcut" transform="translate(70, 42)"><g class="regexp-diagram-border" transform="translate(24, 30)" data-text-range="33,37"><text class="annotation" x="0" y="16">one of:</text><rect class="border" x="0" y="24" width="56" height="84"></rect><g class="regexp-diagram-vstack" transform="translate(12, 36)"><g class="regexp-diagram-characterstation" transform="translate(0, 0)"><rect class="station" x="0" y="0" width="32" height="24" rx="12"></rect><text x="6" y="17.5"><tspan class="quotation">“</tspan><tspan>+</tspan><tspan class="quotation">”</tspan></text></g><g class="regexp-diagram-characterstation" transform="translate(0, 36)"><rect class="station" x="0" y="0" width="28" height="24" rx="12"></rect><text x="6.0078125" y="17.5"><tspan class="quotation">“</tspan><tspan>-</tspan><tspan class="quotation">”</tspan></text></g></g></g><path class="railroad" d="M 0 6H 104"></path><path class="arrow" d="M 68 0l 12 6l -12 6"></path><path class="railroad" d="M 0 6q 12 0,12 12V 66q 0 12,12 12H 24M 80 78H 80q 12 0,12 -12V 18q 0 -12,12 -12"></path></g><path class="railroad" d="M 58 48H 70"></path><g class="regexp-diagram-loop" transform="translate(186, 36)"><g class="regexp-diagram-characterstation" transform="translate(12, 0)" data-text-range="38,40"><rect class="station" x="0" y="0" width="42" height="24" rx="0"></rect><text x="6.32421875" y="17.5" class="classified">digit</text></g><path class="railroad" d="M 54 12H 54"></path><path class="loop" d="M 54 12q 12 0,12 12V 36q 0 12,-12 12H 12q -12 0,-12 -12V 24q 0 -12,12 -12H 12"></path><path class="arrow" d="M 24 42l -12 6l 12 6"></path></g><path class="railroad" d="M 174 48H 198"></path></g></g><path class="railroad" d="M 0 6H 324"></path><path class="arrow" d="M 288 0l 12 6l -12 6"></path><path class="railroad" d="M 0 6q 12 0,12 12V 102q 0 12,12 12H 36M 276 114H 300q 12 0,12 -12V 18q 0 -12,12 -12"></path></g><path class="railroad" d="M 590 48H 602"></path><g class="regexp-diagram-terminalstation" transform="translate(938, 36)"><path class="railroad" d="M0 0V24M4 0V24"></path></g><path class="railroad" d="M 926 48H 938"></path></g></g></g></svg>